<svg width="600" height="400" xmlns="http://www.w3.org/2000/svg">
  <!-- Black terminal background -->
  <rect width="600" height="400" fill="#0d1117"/>
  
  <!-- Terminal border -->
  <rect x="20" y="20" width="560" height="360" fill="#161b22" stroke="#30363d" stroke-width="2" rx="8"/>
  
  <!-- Terminal header -->
  <rect x="20" y="20" width="560" height="30" fill="#21262d" rx="8"/>
  <circle cx="40" cy="35" r="6" fill="#ff5f56"/>
  <circle cx="60" cy="35" r="6" fill="#ffbd2e"/>
  <circle cx="80" cy="35" r="6" fill="#27ca3f"/>
  
  <!-- ASCII Cube Art -->
  <text x="50" y="80" font-family="Monaco, 'Courier New', monospace" font-size="10" fill="#7c3aed">
    <tspan x="50" dy="0">                   #####################</tspan>
    <tspan x="50" dy="12">               ##                 ##</tspan>
    <tspan x="50" dy="12">             # #               # #</tspan>
    <tspan x="50" dy="12">           #  #             #  #</tspan>
    <tspan x="50" dy="12">         #   #           #   #</tspan>
    <tspan x="50" dy="12">       #    ###########    #</tspan>
    <tspan x="50" dy="12">     #    #         #    #</tspan>
    <tspan x="50" dy="12">   #    #         #    #</tspan>
    <tspan x="50" dy="12"> #    #         #    #</tspan>
    <tspan x="50" dy="12">#    #         #    #</tspan>
    <tspan x="50" dy="12">#    #         #    #</tspan>
    <tspan x="50" dy="12">#    #         #    #</tspan>
    <tspan x="50" dy="12">#    ###########    #</tspan>
    <tspan x="50" dy="12">#                   #</tspan>
    <tspan x="50" dy="12">#####################</tspan>
  </text>
  
  <!-- Control instructions -->
  <text x="50" y="320" font-family="Monaco, 'Courier New', monospace" font-size="10" fill="#58a6ff">
    <tspan x="50" dy="0">Use arrow keys to rotate. Ctrl+C to exit.</tspan>
  </text>
  
  <!-- Arrow Keys Display (lowered + pink) -->
  <!-- Up Arrow Key -->
  <rect x="430" y="120" width="40" height="30" fill="#21262d" stroke="#30363d" stroke-width="1" rx="4"/>
  <polygon points="450,130 445,140 455,140" fill="#ff69b4"/>
  
  <!-- Left Arrow Key -->
  <rect x="380" y="160" width="40" height="30" fill="#21262d" stroke="#30363d" stroke-width="1" rx="4"/>
  <polygon points="390,175 400,170 400,180" fill="#ff69b4"/>
  
  <!-- Down Arrow Key -->
  <rect x="430" y="160" width="40" height="30" fill="#21262d" stroke="#30363d" stroke-width="1" rx="4"/>
  <polygon points="450,180 445,170 455,170" fill="#ff69b4"/>
  
  <!-- Right Arrow Key -->
  <rect x="480" y="160" width="40" height="30" fill="#21262d" stroke="#30363d" stroke-width="1" rx="4"/>
  <polygon points="500,175 490,170 490,180" fill="#ff69b4"/>
</svg>
 
