<svg width="600" height="400" xmlns="http://www.w3.org/2000/svg">
  <!-- Black terminal background -->
  <rect width="600" height="400" fill="#0d1117"/>
  
  <!-- Terminal border -->
  <rect x="20" y="20" width="560" height="360" fill="#161b22" stroke="#30363d" stroke-width="2" rx="8"/>
  
  <!-- Terminal header -->
  <rect x="20" y="20" width="560" height="30" fill="#21262d" rx="8"/>
  <circle cx="40" cy="35" r="6" fill="#ff5f56"/>
  <circle cx="60" cy="35" r="6" fill="#ffbd2e"/>
  <circle cx="80" cy="35" r="6" fill="#27ca3f"/>
  
  <!-- ASCII Cube Art -->
  <text x="50" y="80" font-family="Monaco, 'Courier New', monospace" font-size="10" fill="#7c3aed">
    <tspan x="50" dy="0">                   #####################</tspan>
    <tspan x="50" dy="12">               ##                 ##</tspan>
    <tspan x="50" dy="12">             # #               # #</tspan>
    <tspan x="50" dy="12">           #  #             #  #</tspan>
    <tspan x="50" dy="12">         #   #           #   #</tspan>
    <tspan x="50" dy="12">       #    ###########    #</tspan>
    <tspan x="50" dy="12">     #    #         #    #</tspan>
    <tspan x="50" dy="12">   #    #         #    #</tspan>
    <tspan x="50" dy="12"> #    #         #    #</tspan>
    <tspan x="50" dy="12">#    #         #    #</tspan>
    <tspan x="50" dy="12">#    #         #    #</tspan>
    <tspan x="50" dy="12">#    #         #    #</tspan>
    <tspan x="50" dy="12">#    ###########    #</tspan>
    <tspan x="50" dy="12">#                   #</tspan>
    <tspan x="50" dy="12">#####################</tspan>
  </text>
  
  <!-- Control instructions -->
  <text x="50" y="320" font-family="Monaco, 'Courier New', monospace" font-size="10" fill="#58a6ff">
    <tspan x="50" dy="0">Use arrow keys to rotate. Ctrl+C to exit.</tspan>
  </text>
  
  <!-- Arrow Keys Display -->
  <!-- Up Arrow Key -->
  <rect x="430" y="100" width="40" height="30" fill="#21262d" stroke="#30363d" stroke-width="1" rx="4"/>
  <polygon points="450,110 445,120 455,120" fill="#7c3aed"/>
  
  <!-- Left Arrow Key -->
  <rect x="380" y="140" width="40" height="30" fill="#21262d" stroke="#30363d" stroke-width="1" rx="4"/>
  <polygon points="390,155 400,150 400,160" fill="#7c3aed"/>
  
  <!-- Down Arrow Key -->
  <rect x="430" y="140" width="40" height="30" fill="#21262d" stroke="#30363d" stroke-width="1" rx="4"/>
  <polygon points="450,160 445,150 455,150" fill="#7c3aed"/>
  
  <!-- Right Arrow Key -->
  <rect x="480" y="140" width="40" height="30" fill="#21262d" stroke="#30363d" stroke-width="1" rx="4"/>
  <polygon points="500,155 490,150 490,160" fill="#7c3aed"/>
  
  <!-- Control label -->
  <text x="430" y="200" font-family="Monaco, 'Courier New', monospace" font-size="11" fill="#8b949e" text-anchor="middle">
    <tspan x="430" dy="0">Controls</tspan>
  </text>
</svg> 